<svg id="svg" version="1.1" class="w-[550px] h-[550px] border-4 border-indigo-500 rounded-xl p-5 object-contain" xmlns="http://www.w3.org/2000/svg" viewBox="0 0 500 500"><svg xmlns="http://www.w3.org/2000/svg" width="500" height="500" viewBox="0 0 500 500" version="1.1">
	<path d="M 155 79.628 C 138.742 81.680, 123.488 85.575, 109.699 91.196 C 61.698 110.763, 26.186 149.437, 11.137 198.537 C 5.231 217.806, 4.497 223.366, 4.538 248.500 C 4.570 268.474, 4.869 272.849, 6.806 281.749 C 21.532 349.392, 71.580 399.412, 139.353 414.221 C 148.256 416.167, 152.380 416.435, 173 416.409 C 195.631 416.381, 197.029 416.263, 210.800 413.222 C 227.518 409.530, 234.933 406.044, 242.581 398.281 C 245.409 395.411, 249.003 390.617, 250.567 387.628 C 253.217 382.567, 253.486 382.342, 254.481 384.347 C 255.861 387.126, 259.195 387.574, 262.481 385.420 C 266.040 383.088, 267.323 380.472, 266.063 378.118 C 264.543 375.277, 262.558 374.953, 258.853 376.939 L 255.500 378.736 255.500 369.618 C 255.500 361.468, 255.166 359.796, 252.356 353.865 C 246.669 341.862, 229.203 326.019, 214.269 319.318 C 207.257 316.172, 196.153 315.137, 189.472 317.008 C 186.976 317.707, 182.374 320.072, 179.245 322.263 L 173.557 326.248 168.352 320.657 C 159.561 311.212, 150.145 296.806, 145.535 285.748 L 143.971 281.995 147.984 280.390 C 153.429 278.211, 161.326 269.340, 164.134 262.247 C 167.119 254.708, 167.367 236.964, 164.626 227 C 158.757 205.661, 148.524 190.460, 136.705 185.521 C 129.403 182.470, 113.963 184.466, 103.326 189.835 C 89.683 196.722, 81.207 206.612, 76.324 221.343 C 73.845 228.823, 73.618 230.827, 73.595 245.500 C 73.574 258.222, 74.036 263.841, 75.848 272.926 C 85.417 320.894, 115.253 365.961, 155.938 393.905 L 163.375 399.013 158.438 398.428 C 119.983 393.867, 88.294 378.172, 62.745 351.031 C 37.523 324.238, 23.728 291.120, 22.328 254 C 20.673 210.115, 36.009 171.487, 67.391 140.500 C 93.731 114.491, 128.192 99.365, 165.680 97.358 C 197.965 95.630, 232.954 105.719, 259.202 124.327 L 266.500 129.500 229 130 C 192.541 130.486, 191.402 130.561, 187.962 132.701 C 186.016 133.911, 183.316 136.836, 181.962 139.201 L 179.500 143.500 179.500 215.500 C 179.500 255.100, 179.844 288.729, 180.264 290.232 C 181.434 294.411, 186.621 299.692, 191.297 301.462 C 195.077 302.893, 208.751 303.025, 327.073 302.777 L 458.647 302.500 462.702 299.816 C 465.145 298.199, 467.601 295.390, 468.879 292.750 C 470.980 288.409, 471 287.700, 471 216.135 C 471 151.521, 470.829 143.563, 469.379 140.700 C 467.078 136.155, 465.034 134.060, 460.790 131.894 C 457.236 130.080, 453.533 130, 373.040 130 L 289 130 289 127.600 C 289 125.966, 287.238 123.590, 283.477 120.153 C 264.374 102.694, 234.705 88.175, 205.500 81.993 C 197.948 80.395, 190.972 79.792, 177 79.531 C 166.825 79.342, 156.925 79.385, 155 79.628 M 193.500 140.208 C 188.949 142.818, 189.065 140.839, 189.032 216.194 L 189 287.888 191.413 290.694 L 193.827 293.500 323.942 293.761 C 466.285 294.047, 458.779 294.341, 461.043 288.387 C 461.619 286.871, 462 257.836, 462 215.358 L 462 144.846 459.077 141.923 L 456.154 139 325.827 139.030 C 229.686 139.053, 194.975 139.362, 193.500 140.208 M 342.491 183.865 C 337.059 186.333, 332.403 191.903, 330.546 198.156 C 329.700 201.007, 329.214 203.548, 329.468 203.801 C 329.721 204.055, 333.027 204.484, 336.815 204.755 L 343.701 205.247 344.330 202.098 C 345.330 197.098, 349.129 193.994, 354.205 194.032 C 360.556 194.079, 364 197.578, 364 203.984 C 364 209.154, 361.318 212.874, 347.047 227.500 C 333.321 241.567, 329.518 247.034, 328.320 254.418 L 327.738 258 353.369 258 L 379 258 379 251.500 L 379 245 364.500 245 C 356.525 245, 350 244.698, 350 244.329 C 350 243.960, 355.315 238.223, 361.810 231.579 C 368.830 224.400, 374.481 217.675, 375.742 215 C 380.287 205.358, 379.546 195.970, 373.716 189.330 C 368.982 183.938, 363.987 182.044, 354.500 182.044 C 348.896 182.044, 345.299 182.589, 342.491 183.865 M 416.699 185.250 C 415.378 187.037, 407.930 197.853, 400.148 209.285 L 386 230.071 386 236.535 L 386 243 401.500 243 L 417 243 417 250.500 L 417 258 424 258 L 431 258 431 250.500 L 431 243 436 243 L 441 243 441 236.500 L 441 230 436 230 L 431 230 431 206 L 431 182 425.051 182 C 419.499 182, 418.942 182.217, 416.699 185.250 M 211 189.500 L 211 196 227 196 C 235.800 196, 242.998 196.338, 242.996 196.750 C 242.993 197.162, 241.618 199.525, 239.939 202 C 231.870 213.898, 224.881 231.008, 222.490 244.719 C 220.065 258.624, 219.806 258, 228 258 C 234.697 258, 235 257.897, 235 255.631 C 235 251.327, 237.898 236.610, 240.046 230 C 244.041 217.712, 252.049 203.037, 258.629 195.945 C 260.492 193.939, 261 192.276, 261 188.195 L 261 183 236 183 L 211 183 211 189.500 M 119.500 203.401 C 103.306 207.389, 94.589 217.748, 91.986 236.096 C 90.629 245.666, 92.384 264.377, 95.947 278.335 C 108.797 328.665, 150.630 378.032, 192 391.685 C 200.235 394.403, 216.130 394.217, 221.500 391.339 C 227.193 388.289, 232.882 382.312, 235.622 376.500 C 238.454 370.495, 238.548 367.782, 236.107 362.500 C 230.294 349.921, 209.391 334.003, 198.684 334.001 C 194.291 334, 192.451 334.857, 185.358 340.202 C 174.468 348.409, 169.194 347.548, 157.477 335.648 C 148.273 326.299, 139.860 314.749, 133.552 302.801 C 126.123 288.730, 124.277 278.935, 127.752 272.020 C 129.733 268.077, 135.202 264, 138.512 264 C 144.467 264, 149.756 252.402, 148.573 241.942 C 146.981 227.867, 141.278 213.412, 134.544 206.385 C 129.910 201.548, 128.312 201.231, 119.500 203.401 M 275.805 215.250 C 280.642 221.988, 284.924 228.034, 285.320 228.688 C 285.745 229.387, 282.127 235.433, 276.521 243.394 C 271.284 250.829, 267 257.157, 267 257.456 C 267 257.755, 270.712 257.991, 275.250 257.981 L 283.500 257.962 289.124 249.396 L 294.747 240.829 300.124 249.395 L 305.500 257.961 314.250 257.980 C 319.063 257.991, 323 257.755, 323 257.456 C 323 257.157, 318.725 250.842, 313.500 243.423 C 308.275 236.004, 304 229.566, 304 229.117 C 304 228.668, 307.994 222.720, 312.876 215.900 L 321.753 203.500 314.215 203.205 C 310.069 203.043, 306.092 203.134, 305.377 203.409 C 304.662 203.683, 301.955 207.100, 299.360 211.002 L 294.642 218.097 289.778 210.548 L 284.914 203 275.962 203 L 267.011 203 275.805 215.250 M 408.282 217.419 L 400.064 229.500 408.156 229.792 C 412.607 229.953, 416.432 229.901, 416.656 229.677 C 416.880 229.453, 416.937 223.885, 416.782 217.304 L 416.500 205.338 408.282 217.419 M 312.989 307.250 C 310.645 311.095, 310.445 314.294, 312.445 315.954 C 314.973 318.053, 318.362 316.761, 320.197 313 C 322.347 308.592, 322.380 307.523, 320.429 305.571 C 317.929 303.071, 315.155 303.697, 312.989 307.250 M 303.725 326.752 C 302.853 327.715, 301.666 329.748, 301.088 331.270 C 300.211 333.574, 300.367 334.367, 302.018 336.018 C 304.582 338.582, 305.575 338.516, 308.505 335.586 C 313.178 330.913, 312.635 325, 307.533 325 C 306.310 325, 304.597 325.788, 303.725 326.752 M 290.783 345.750 C 286.257 350.939, 286.609 356, 291.495 356 C 294.393 356, 299 351.372, 299 348.460 C 299 344.140, 293.710 342.395, 290.783 345.750 M 274.687 363.805 C 270.728 367.937, 271.519 373, 276.123 373 C 278.778 373, 284 368.101, 284 365.611 C 284 360.478, 278.834 359.476, 274.687 363.805" stroke="none" fill="black" fill-rule="evenodd"></path>
</svg></svg>