<svg id="svg" version="1.1" class="w-[550px] h-[550px] border-4 border-indigo-500 rounded-xl p-5 object-contain" xmlns="http://www.w3.org/2000/svg" viewBox="0 0 800 800"><path d="M0 0 C264 0 528 0 800 0 C800 264 800 528 800 800 C536 800 272 800 0 800 C0 536 0 272 0 0 Z " transform="translate(0,0)" style="fill: #3E4550;"></path><path d="M0 0 C264 0 528 0 800 0 C800 264 800 528 800 800 C702.32 800 604.64 800 504 800 C504 799.67 504 799.34 504 799 C505.12535156 798.78085937 506.25070312 798.56171875 507.41015625 798.3359375 C527.70629364 794.21620422 545.17007337 786.47950819 561 773 C561.82113281 772.37996094 562.64226563 771.75992188 563.48828125 771.12109375 C567.20524484 767.98219603 569.9416359 764.1929435 572.9140625 760.36328125 C575 758 575 758 578 757 C579.76171875 758.15234375 579.76171875 758.15234375 581.6875 759.9375 C582.3990625 760.58847656 583.110625 761.23945312 583.84375 761.91015625 C585.84762918 763.85232176 587.7661257 765.851858 589.6875 767.875 C607.12104385 785.41009848 633.80030015 796.03685388 658.29760742 796.38037109 C688.51181915 796.33066552 713.24865202 786.92041828 735.5 765.875 C749.35496836 751.53218064 758.58548402 733.39233806 763 714 C763.17582446 713.23639947 763.35164892 712.47279894 763.53280139 711.686059 C764.03747591 708.78454023 764.12782272 706.08519022 764.13142776 703.14024353 C764.13526891 701.96033466 764.13911005 700.7804258 764.1430676 699.56476212 C764.14176787 697.62606058 764.14176787 697.62606058 764.14044189 695.64819336 C764.14302662 694.25798841 764.14604008 692.8677842 764.1494453 691.47758102 C764.1575078 687.65692517 764.15930448 683.83628811 764.16004276 680.01562476 C764.16189496 675.8937783 764.16944381 671.77194155 764.17617798 667.65010071 C764.18976311 658.63014357 764.19578815 649.61019088 764.20018864 640.59022522 C764.20295443 634.94707139 764.20719275 629.30391927 764.21169281 623.6607666 C764.22389265 608.01026517 764.23418604 592.35976511 764.2375679 576.70925903 C764.23789725 575.20628224 764.23789725 575.20628224 764.23823325 573.67294228 C764.23845153 572.66863384 764.23866981 571.66432539 764.2388947 570.62958336 C764.23933816 568.59468969 764.23978472 566.55979601 764.24023438 564.52490234 C764.24056652 563.01085465 764.24056652 563.01085465 764.24090537 561.46622014 C764.24484015 545.16782909 764.26225037 528.86948311 764.2855939 512.57110941 C764.30941469 495.8025553 764.32177484 479.03402367 764.32293582 462.26545238 C764.32384733 452.86532834 764.32946476 443.4652628 764.34775543 434.06515503 C764.36330282 426.04677364 764.36819255 418.02846878 764.36001733 410.01007515 C764.35615992 405.9315534 764.35679302 401.853185 764.37107468 397.774683 C764.45659882 371.84041603 763.01918958 346.36572866 757.8125 320.875 C757.6641571 320.13060669 757.51581421 319.38621338 757.36297607 318.6192627 C744.81068438 255.90578321 715.22863103 196.5836025 672.09375 149.3125 C670.31095614 147.34344409 668.58881553 145.34109798 666.875 143.3125 C658.69392326 133.92437915 649.62594886 124.90164845 640 117 C639.47422363 116.56042969 638.94844727 116.12085937 638.40673828 115.66796875 C575.19581027 62.84717709 496.75548599 31.05433561 414 29 C413.18241211 28.97808594 412.36482422 28.95617187 411.52246094 28.93359375 C334.02370304 27.1608429 255.89915756 50.45782516 193 96 C192.45166504 96.39670898 191.90333008 96.79341797 191.33837891 97.20214844 C184.00857096 102.53901806 176.95592188 108.1876468 170 114 C168.989375 114.82371094 167.97875 115.64742188 166.9375 116.49609375 C159.30402128 122.79717929 152.20556586 129.58510072 145.1875 136.5625 C144.31625488 137.42456055 143.44500977 138.28662109 142.54736328 139.17480469 C137.3529254 144.39394506 132.57238386 149.80571856 127.9675293 155.55102539 C126.41765861 157.48014226 124.84629429 159.3624547 123.20703125 161.21484375 C108.54871806 177.88180018 97.04455569 196.82015375 86 216 C85.33726074 217.1451709 85.33726074 217.1451709 84.66113281 218.31347656 C64.81321921 252.98596537 52.7050086 292.43543693 46.1875 331.6875 C45.9925293 332.84797852 45.79755859 334.00845703 45.59667969 335.20410156 C42.10097693 357.66414589 41.69746362 380.24072541 41.72389162 402.9191134 C41.72640053 406.96945177 41.71729467 411.01976882 41.70985413 415.07009888 C41.6972237 422.96520018 41.69529825 430.8602673 41.69765439 438.75537701 C41.69944902 445.175803 41.69766364 451.59621875 41.69342995 458.01664352 C41.69283476 458.93589609 41.69223957 459.85514865 41.69162634 460.80225735 C41.69041443 462.67049103 41.6892003 464.53872471 41.68798397 466.40695839 C41.67715582 483.8494142 41.67924983 501.29185058 41.68536881 518.73430745 C41.69054755 534.66259666 41.67924891 550.5908249 41.66027059 566.51910205 C41.64087012 582.92888178 41.63263919 599.33863267 41.63639385 615.74842393 C41.63830077 624.93988393 41.63586703 634.13129189 41.62167931 643.32274246 C41.60973715 651.13719581 41.60839322 658.95156497 41.62046947 666.76601954 C41.62633503 670.74572997 41.62752196 674.72528662 41.61546707 678.70498657 C41.60453177 682.35760667 41.60780098 686.00994597 41.62172876 689.66255336 C41.62558473 691.58787885 41.61489242 693.5132172 41.60343188 695.43851244 C41.77266801 723.09999134 53.61437827 748.26222017 73.1418457 767.62939453 C92.64784488 786.12221359 119.89988291 795.82609606 146.65234375 795.25 C171.0228486 793.43003231 193.03404644 785.52290353 212 770 C212.65226563 769.49984375 213.30453125 768.9996875 213.9765625 768.484375 C218.72010303 764.71553458 222.23236875 760.10269051 225.88671875 755.29296875 C228.01676132 752.9818135 228.93422037 752.31142231 232 752 C232.70382813 752.88300781 233.40765625 753.76601563 234.1328125 754.67578125 C252.71916952 777.47615258 277.44312951 790.81055491 306.625 794.6875 C333.96142255 797.09953728 361.36307727 789.50173946 382.5078125 771.9140625 C387.79636311 767.30477527 392.43873875 762.38592363 396.89453125 756.96875 C399.28881377 754.72994037 400.78205052 754.31449419 404 754 C404.53109375 754.74765625 405.0621875 755.4953125 405.609375 756.265625 C406.66898437 757.74289062 406.66898437 757.74289062 407.75 759.25 C408.44609375 760.22453125 409.1421875 761.1990625 409.859375 762.203125 C411.90438235 765.00896411 411.90438235 765.00896411 414.265625 767.234375 C416 769 416 769 416 771 C416.58007812 771.25523437 417.16015625 771.51046875 417.7578125 771.7734375 C420.22346943 773.12224635 421.86669003 774.66357664 423.875 776.625 C438.12110997 789.49546269 456.52219905 795.43851909 475 799 C475 799.33 475 799.66 475 800 C318.25 800 161.5 800 0 800 C0 536 0 272 0 0 Z " transform="translate(0,0)" style="fill: #000000;"></path><path d="M0 0 C1.83637024 0.00356506 1.83637024 0.00356506 3.70983887 0.00720215 C22.27447026 0.06351916 40.12370047 0.91344751 58.375 4.4375 C60.27456948 4.7769948 62.17430391 5.11556828 64.07421875 5.453125 C68.86897486 6.33424069 73.62514414 7.34129328 78.375 8.4375 C79.56351562 8.70949219 80.75203125 8.98148438 81.9765625 9.26171875 C134.17000581 22.28062504 182.63336792 48.10216355 222.2265625 84.47265625 C224.20001082 86.27746444 226.21363832 88.01701465 228.25 89.75 C236.54899421 96.98847365 244.3492589 104.96155582 251.375 113.4375 C252.04088135 114.23269043 252.04088135 114.23269043 252.72021484 115.04394531 C295.98230691 166.82417966 323.7997281 229.07274158 330.375 296.4375 C330.45458979 297.09178704 330.53417959 297.74607409 330.61618119 298.42018801 C331.44807967 305.67895896 331.51771983 312.86968331 331.50871277 320.17002869 C331.51058421 321.54025397 331.51288623 322.91047873 331.51557809 324.28070265 C331.52166106 328.02220108 331.52156666 331.76367705 331.52038372 335.50517929 C331.52017883 339.54956329 331.52570678 343.59394024 331.53044128 347.63832092 C331.5387285 355.55217618 331.54149523 363.46602399 331.54205366 371.37988322 C331.54252962 377.81404821 331.54458832 384.24821074 331.54775429 390.68237495 C331.55655459 408.93963185 331.56117449 427.19688288 331.56042381 445.45414191 C331.56036388 446.92884972 331.56036388 446.92884972 331.56030273 448.43334961 C331.56024141 449.90986512 331.56024141 449.90986512 331.56017885 451.41620923 C331.55977227 467.37400622 331.5693465 483.33177962 331.5834411 499.28956979 C331.59781184 515.68981114 331.60471094 532.09004099 331.60384732 548.49028879 C331.60351566 557.69189454 331.60624959 566.89347554 331.61702538 576.09507561 C331.62613941 583.92755723 331.62829809 591.76000288 331.62151595 599.59248751 C331.61825569 603.58574537 331.61817628 607.57893426 331.6268692 611.57218552 C331.63475665 615.23315757 331.63328001 618.89400621 331.62458507 622.55497534 C331.62233454 624.49490476 331.62986094 626.43483808 331.63782471 628.37475246 C331.55980647 648.26141436 325.345112 666.79284607 311.25 681.1875 C296.5678608 695.5648197 277.97902455 702.89528519 257.48901367 702.73364258 C236.00350628 702.13337554 219.61287744 691.94850514 204.890625 677.12109375 C202.375 674.4375 202.375 674.4375 200.27734375 671.76171875 C194.95565825 665.2598648 186.45506357 661.96082313 178.265625 661.1171875 C168.20447824 660.76292177 160.21192526 663.27364476 152.30859375 669.5390625 C149.17609262 672.61460906 146.79692529 676.1833639 144.28515625 679.76953125 C135.34363699 692.2584017 121.76981194 699.13460904 107.375 703.4375 C106.27800781 703.80230469 105.18101562 704.16710937 104.05078125 704.54296875 C86.5592494 708.79967522 67.03417794 704.67143545 51.75 695.640625 C44.14799332 690.84879832 38.06051458 684.42638373 32.26953125 677.62109375 C30.40267857 675.41320528 30.40267857 675.41320528 28.32421875 673.41015625 C27.68097656 672.75917969 27.03773438 672.10820313 26.375 671.4375 C25.7975 670.880625 25.22 670.32375 24.625 669.75 C20.63348829 662.36570333 24.27373155 650.46913836 25.375 642.375 C25.56824303 640.92259708 25.76095565 639.47012349 25.953125 638.01757812 C26.42097147 634.49004969 26.89598713 630.96353159 27.375 627.4375 C28.5815625 627.41171875 29.788125 627.3859375 31.03125 627.359375 C32.64586738 627.30305114 34.26044933 627.2457048 35.875 627.1875 C36.66648437 627.17332031 37.45796875 627.15914062 38.2734375 627.14453125 C45.32175134 626.85566593 50.8791582 625.06133368 55.8125 619.875 C58.77321624 615.25628267 59.03216004 610.77692534 58.375 605.4375 C55.91000606 600.50751212 54.26461052 599.37126631 49.375 596.4375 C43.105 596.1075 36.835 595.7775 30.375 595.4375 C30.375 582.5675 30.375 569.6975 30.375 556.4375 C36.645 556.1075 42.915 555.7775 49.375 555.4375 C55.36375774 551.82917258 55.36375774 551.82917258 58.375 546.4375 C59.14146665 540.17802238 58.8007495 534.79023359 55.375 529.4375 C49.79415748 525.39720255 44.08120706 524.80081533 37.375 524.6875 C36.50488281 524.65785156 35.63476562 524.62820313 34.73828125 524.59765625 C32.61766784 524.52774592 30.49633437 524.48026884 28.375 524.4375 C27.86953917 520.06311293 27.37159468 515.68790173 26.875 511.3125 C26.73191406 510.075 26.58882812 508.8375 26.44140625 507.5625 C26.30605469 506.36367188 26.17070312 505.16484375 26.03125 503.9296875 C25.90556641 502.82995605 25.77988281 501.73022461 25.65039062 500.59716797 C25.38264216 497.52518155 25.32627634 494.51927181 25.375 491.4375 C26.20410889 491.2923999 27.03321777 491.1472998 27.88745117 490.99780273 C86.19433076 480.64763609 136.8052466 454.06338732 171.64477539 404.89550781 C186.25310167 383.89480187 196.40357453 361.03626706 203.375 336.4375 C203.66310547 335.42139648 203.95121094 334.40529297 204.24804688 333.35839844 C208.48621017 317.48860115 208.8366633 301.6965728 208.875 285.375 C208.87976349 284.37311646 208.88452698 283.37123291 208.88943481 282.33898926 C208.9196801 265.47007214 207.19436674 249.58438108 202.5625 233.3125 C202.17348511 231.92550903 202.17348511 231.92550903 201.77661133 230.51049805 C192.66783586 198.72475302 176.53764306 169.73960498 153.5546875 145.890625 C151.375 143.4375 151.375 143.4375 150.3203125 141.234375 C149.51840798 139.28166038 149.51840798 139.28166038 147.51928711 138.52709961 C145.20166963 137.34942378 143.88758101 136.09933288 142.12109375 134.20703125 C138.4825595 130.46594857 134.59439212 127.27105786 130.4375 124.125 C129.70096191 123.56594971 128.96442383 123.00689941 128.20556641 122.4309082 C120.88010997 116.94815196 113.28197409 112.03481191 105.375 107.4375 C104.77010742 107.08349121 104.16521484 106.72948242 103.54199219 106.36474609 C88.79339812 97.83809011 72.87007541 91.62802974 56.375 87.4375 C55.43269531 87.17453125 54.49039062 86.9115625 53.51953125 86.640625 C37.42332871 82.2890999 21.51742458 80.96187543 4.89257812 81.10131836 C1.84999573 81.12519623 -1.19172067 81.12181282 -4.234375 81.11523438 C-6.20833846 81.12080517 -8.18229832 81.12791127 -10.15625 81.13671875 C-11.04606567 81.13580734 -11.93588135 81.13489594 -12.85266113 81.13395691 C-19.28184351 81.20531604 -25.33593531 82.13863886 -31.625 83.4375 C-32.74648438 83.64890625 -33.86796875 83.8603125 -35.0234375 84.078125 C-75.1127272 92.28538116 -108.19080837 110.3170599 -138.625 137.4375 C-143.13917412 133.7524599 -147.0124175 129.97600622 -150.78125 125.5390625 C-153.88670269 121.99937278 -157.25768181 118.72610166 -160.625 115.4375 C-158.74824201 110.55792922 -154.66305306 107.37941848 -150.96875 103.859375 C-146.76110968 99.77548881 -144.35403123 96.99227995 -144.25 91.0625 C-144.37051053 86.47556783 -145.53670629 83.93214814 -148.625 80.4375 C-152.96809253 76.50803533 -156.4348214 75.97839973 -162.0625 75.90625 C-169.05071974 77.35502726 -173.70619975 83.40335313 -178.30078125 88.45507812 C-182.04344151 92.38535245 -182.04344151 92.38535245 -184.62890625 92.6171875 C-187.58422916 90.87059744 -189.98026673 88.61770316 -192.4375 86.25 C-193.5005143 85.24916262 -194.56431298 84.24915766 -195.62890625 83.25 C-196.1408252 82.76660156 -196.65274414 82.28320312 -197.18017578 81.78515625 C-199.91207951 79.23697974 -202.76643611 76.84129236 -205.625 74.4375 C-155.38339327 22.64578925 -69.76181924 -0.3579231 0 0 Z " transform="translate(399.625,62.5625)" style="fill: #FEFEFE;"></path><path d="M0 0 C3.25352255 0.59345464 5.04013494 1.60812048 7.49609375 3.80078125 C8.45805664 4.64866211 8.45805664 4.64866211 9.43945312 5.51367188 C10.09880859 6.10728516 10.75816406 6.70089844 11.4375 7.3125 C12.74797352 8.47607678 14.0591566 9.63885497 15.37109375 10.80078125 C16.29897705 11.62570068 16.29897705 11.62570068 17.24560547 12.46728516 C19.4405083 14.38484708 21.70250006 16.20715322 24 18 C23.47576113 22.04675616 21.47720402 23.77650056 18.5625 26.5 C14.54844001 30.26277854 12.26420095 32.71025847 11.625 38.25 C12.22675321 44.26753209 14.24776396 48.33120377 18.625 52.5 C23.21532444 54.5401442 27.05412857 54.77836665 32 54 C37.01932028 51.59072627 40.4034849 47.6129697 44.0703125 43.51171875 C46 42 46 42 47.91015625 41.953125 C50.95597152 43.47887919 52.94198379 45.62492534 55.3125 48.0625 C55.79452881 48.55548584 56.27655762 49.04847168 56.77319336 49.55639648 C60.19074597 53.07901671 63.48045946 56.70195844 66.66015625 60.44140625 C67.72064136 61.67503179 68.84968251 62.84968251 70 64 C69.43352253 68.46856122 66.59480885 71.80485958 64.125 75.4375 C50.8120516 95.60080048 40.8082596 117.51196482 35 141 C34.72542969 142.09957031 34.45085937 143.19914063 34.16796875 144.33203125 C22.06687571 196.49191505 32.46444644 253.61216107 60.63134766 298.85888672 C71.40967267 315.72044762 84.42408258 332.31337586 100 345 C101.05349263 345.8891959 102.10686728 346.7785316 103.16015625 347.66796875 C117.45217559 359.57569542 133.10198381 369.24694902 150 377 C151.18078125 377.54269531 152.3615625 378.08539062 153.578125 378.64453125 C176.14597962 388.638144 199.61082729 393.11015115 224 396 C225.76619057 406.66573332 226.53521257 417.21203917 227 428 C226.39526855 428.0093457 225.79053711 428.01869141 225.16748047 428.02832031 C222.4025212 428.08231722 219.63920094 428.16590394 216.875 428.25 C215.92367188 428.26417969 214.97234375 428.27835938 213.9921875 428.29296875 C208.04502964 428.49946729 204.56192526 429.09710086 200 433 C196.26935123 437.24522101 195.63702624 441.15091115 195.7265625 446.6484375 C196.19852277 450.70729583 197.4673124 452.75296461 200 456 C206.00757769 459.37926245 211.64306934 459.53277972 218.4375 459.6875 C219.45521484 459.72166016 220.47292969 459.75582031 221.52148438 459.79101562 C224.01421266 459.87293627 226.50661402 459.94226649 229 460 C229.02464849 465.39346988 229.04283531 470.78690725 229.05493164 476.18041992 C229.05997231 478.01668875 229.06680477 479.85295354 229.07543945 481.68920898 C229.08751672 484.32276401 229.09323081 486.95626616 229.09765625 489.58984375 C229.10281754 490.41588608 229.10797882 491.24192841 229.11329651 492.09300232 C229.11349205 494.06236368 229.06204152 496.03161614 229 498 C227.34428241 499.65571759 225.35810759 499.14808012 223.08203125 499.17578125 C222.07462891 499.19962891 221.06722656 499.22347656 220.02929688 499.24804688 C217.90449358 499.29062035 215.77943521 499.32208316 213.65429688 499.34179688 C207.49680898 499.51011981 203.66294916 499.83473836 199 504 C196.14593032 508.09083321 195.40405959 511.79333075 195.5859375 516.6875 C196.31222593 520.74375234 198.1350751 524.0551237 201 527 C206.14579816 530.38085214 210.91143337 530.53032769 216.875 530.6875 C217.75414062 530.72166016 218.63328125 530.75582031 219.5390625 530.79101562 C221.69227705 530.8729314 223.84611551 530.93815579 226 531 C225.79821177 537.01189747 225.47205218 543.00305846 225 549 C224.94038086 549.76231934 224.88076172 550.52463867 224.81933594 551.31005859 C223.73086732 563.16490162 223.73086732 563.16490162 219.859375 567.26953125 C217.3125 569 217.3125 569 214.625 570.50390625 C208.96875422 573.72762966 204.84523889 578.96400506 200.75 583.9375 C189.38903492 597.05425059 172.77755864 604.53059654 155.66748047 606.23193359 C137.63169938 607.39993004 119.08474234 603.06603197 104.78125 591.52734375 C100.49505492 587.69796683 96.57401648 583.6864101 92.79296875 579.359375 C85.07611386 570.55389237 78.86016245 564.68511475 66.66796875 563.51171875 C54.43149277 562.78129844 45.36186845 565.85593558 36 574 C34.74878781 575.52837945 33.54073169 577.09296392 32.375 578.6875 C20.298564 594.06573311 1.82521117 603.87563761 -17.51757812 606.31787109 C-36.4489109 607.80554709 -55.27843201 602.11647913 -69.921875 589.859375 C-70.60765625 589.24578125 -71.2934375 588.6321875 -72 588 C-72.74765625 587.34515625 -73.4953125 586.6903125 -74.265625 586.015625 C-84.35809733 576.60971542 -90.10152052 565.10070429 -94 552 C-94.5181139 550.32888546 -94.5181139 550.32888546 -95.04669476 548.62401104 C-96.50346676 542.69221787 -96.27907765 536.70237473 -96.26069641 530.62910461 C-96.26372027 529.2734324 -96.26761092 527.9177619 -96.27228898 526.56209439 C-96.28255002 522.85080488 -96.28039185 519.13961218 -96.27610838 515.42831481 C-96.27363726 511.41899113 -96.28266088 507.40969054 -96.29014587 503.40037537 C-96.30289076 495.54570441 -96.30468628 487.69106764 -96.30234561 479.83638809 C-96.30055963 473.43951251 -96.30231813 467.04264728 -96.30657005 460.64577293 C-96.30716524 459.73380989 -96.30776043 458.82184684 -96.30837366 457.88224855 C-96.30958551 456.02910302 -96.31079964 454.1759575 -96.31201603 452.32281198 C-96.3228938 434.93914181 -96.3207298 417.55549103 -96.31463119 400.17181977 C-96.30947946 384.32950569 -96.32067076 368.48725342 -96.33972941 352.64495156 C-96.35919531 336.33734349 -96.36734745 320.02976452 -96.36360615 303.72214478 C-96.36170504 294.58364119 -96.36407275 285.44518997 -96.37832069 276.30669594 C-96.39034862 268.5134575 -96.39151485 260.72030353 -96.37953053 252.92706368 C-96.37371641 248.9639641 -96.37232882 245.00101809 -96.38453293 241.03792953 C-96.46430568 213.16136486 -94.433311 186.21561838 -88 159 C-87.80148438 158.13084961 -87.60296875 157.26169922 -87.3984375 156.36621094 C-76.94385341 110.66225417 -56.06605502 67.7512811 -27 31 C-26.19820313 29.98550781 -25.39640625 28.97101563 -24.5703125 27.92578125 C-19.59389094 21.75260779 -14.34376324 15.85530297 -9 10 C-7.31122227 8.12615074 -5.62368748 6.25118044 -3.9375 4.375 C-2.625 2.91666667 -1.3125 1.45833333 0 0 Z " transform="translate(168,159)" style="fill: #FEFEFE;"></path><path d="M0 0 C2.42403953 0.00316741 4.84686106 -0.02044877 7.27075195 -0.0456543 C21.68019702 -0.10501284 35.28340241 2.01526861 49.11645508 6.12817383 C50.00123535 6.38824219 50.88601563 6.64831055 51.79760742 6.91625977 C72.07176701 13.00916471 90.74042713 22.3640645 107.49145508 35.31567383 C108.39637695 35.99758789 109.30129883 36.67950195 110.23364258 37.38208008 C142.31495312 62.46642823 163.23494976 97.96058388 172.80395508 137.25317383 C173.04335815 138.22697998 173.04335815 138.22697998 173.28759766 139.22045898 C182.94196289 181.47363339 173.10346452 229.13306353 150.61645508 265.56567383 C124.24080817 307.0095181 84.92871902 333.56384409 37.49145508 345.31567383 C36.08186523 345.66758789 36.08186523 345.66758789 34.64379883 346.02661133 C-7.09479998 355.39234569 -53.27988 344.87189105 -89.50854492 323.31567383 C-94.37061434 320.23275469 -98.95501897 316.83378747 -103.50854492 313.31567383 C-104.39026367 312.65696289 -105.27198242 311.99825195 -106.18041992 311.31958008 C-120.59150928 300.11823335 -133.56471774 286.62620675 -143.50854492 271.31567383 C-144.10070801 270.41002686 -144.10070801 270.41002686 -144.70483398 269.48608398 C-168.7710779 232.19826162 -179.33102799 184.70284307 -170.3449707 140.87646484 C-169.77362982 138.34400239 -169.15495031 135.82996448 -168.50854492 133.31567383 C-168.29423828 132.46763184 -168.07993164 131.61958984 -167.85913086 130.74584961 C-157.65161594 91.4536033 -133.82285481 57.59732099 -101.50854492 33.31567383 C-100.66420898 32.67629883 -99.81987305 32.03692383 -98.94995117 31.37817383 C-82.2788755 19.23330926 -63.0148623 10.40387287 -43.19604492 4.87817383 C-42.36250488 4.64332275 -41.52896484 4.40847168 -40.67016602 4.16650391 C-27.29072912 0.67222243 -13.75421139 -0.03739439 0 0 Z " transform="translate(401.508544921875,174.684326171875)" style="fill: #4B65AE;"></path><path d="M0 0 C1.64838867 -0.02416992 1.64838867 -0.02416992 3.33007812 -0.04882812 C20.9051909 -0.0591847 36.62920451 6.25178526 50.1875 17.3125 C50.97898437 17.94027344 51.77046875 18.56804687 52.5859375 19.21484375 C60.95182189 26.19593158 66.57185077 34.69570891 71.5 44.3125 C71.82556885 44.94027344 72.1511377 45.56804687 72.48657227 46.21484375 C77.33690709 56.07941865 78.72409002 65.64014735 78.625 76.5625 C78.61597656 77.75399658 78.60695313 78.94549316 78.59765625 80.1730957 C78.23380609 98.70292326 71.77249724 116.45820046 59.1875 130.3125 C58.54554688 131.04597656 57.90359375 131.77945313 57.2421875 132.53515625 C43.59517464 147.21450772 24.28253902 155.79087203 4.33984375 156.55078125 C-17.91121259 157.02393712 -35.50588713 150.68710799 -52.8125 136.3125 C-53.45574219 135.78398437 -54.09898437 135.25546875 -54.76171875 134.7109375 C-67.29384913 123.3180917 -76.61349602 104.69192181 -78.01611328 87.87060547 C-78.11567015 85.3056403 -78.14144936 82.7543159 -78.125 80.1875 C-78.12008545 79.27170166 -78.1151709 78.35590332 -78.11010742 77.41235352 C-77.70943427 53.92057821 -68.13662381 35.43523016 -51.58984375 19.12109375 C-37.07171426 5.62717092 -19.52413286 -0.05665738 0 0 Z " transform="translate(402.8125,270.6875)" style="fill: #DC5A58;"></path><path d="M0 0 C0.81855469 0.68707031 1.63710938 1.37414062 2.48046875 2.08203125 C21.41775577 18.37690613 36.20897224 43.17306262 38.80151367 68.32983398 C41.15160553 99.94478429 35.71088721 130.59514393 14.52734375 155.21875 C13.69332031 156.1365625 12.85929688 157.054375 12 158 C11.52965332 158.51949219 11.05930664 159.03898438 10.57470703 159.57421875 C-7.88403943 179.70016827 -34.11416287 193.76861057 -61.68408203 195.1328125 C-95.00156197 196.4311069 -122.68416464 186.68471067 -147.68359375 164.6328125 C-167.21686182 146.04421106 -180.38012002 119.15909729 -181.25 92.140625 C-181.79477756 60.01388142 -173.01876534 31.6707523 -150.60986328 8.14111328 C-110.76421705 -32.35226507 -43.69515103 -38.55454503 0 0 Z M-123 26 C-123.75796875 26.66515625 -124.5159375 27.3303125 -125.296875 28.015625 C-140.1159087 41.81265637 -148.41449004 61.11824148 -149.28515625 81.23828125 C-149.51803737 90.55269719 -149.40126886 99.21877735 -146 108 C-145.60941406 109.15371094 -145.21882813 110.30742187 -144.81640625 111.49609375 C-137.88478271 131.16368492 -123.66406895 146.71875823 -104.99755859 155.99511719 C-94.33918946 160.84340411 -84.3160243 163.37479243 -72.625 163.25 C-71.69743896 163.24250732 -70.76987793 163.23501465 -69.81420898 163.22729492 C-47.21380184 162.8718989 -28.80221047 153.75620694 -13 138 C-12.33097656 137.35417969 -11.66195312 136.70835937 -10.97265625 136.04296875 C4.44995325 119.99086498 7.60771487 98.0834343 7.3359375 76.84375 C6.68838855 57.23532555 -3.90101908 39.87214043 -17.67578125 26.37890625 C-47.20744575 0.12409762 -93.45139312 -0.73445384 -123 26 Z " transform="translate(474,264)" style="fill: #3E4550;"></path></svg>