<svg id="svg" version="1.1" class="w-[550px] h-[550px] border-4 border-indigo-500 rounded-xl p-5 object-contain" xmlns="http://www.w3.org/2000/svg" viewBox="0 0 800 800"><path d="M0 0 C264 0 528 0 800 0 C800 264 800 528 800 800 C536 800 272 800 0 800 C0 536 0 272 0 0 Z " transform="translate(0,0)" style="fill: none;"></path><path d="M0 0 C1.62181686 0.00564972 1.62181686 0.00564972 3.27639771 0.01141357 C75.33395731 0.30559941 146.86855657 19.61080618 205.8125 62.25 C206.53195801 62.76594727 207.25141602 63.28189453 207.99267578 63.81347656 C216.17715403 69.7063009 223.89932291 75.87255208 231.22265625 82.80859375 C233.35322404 84.81704755 235.51600995 86.73470073 237.75 88.625 C246.44981205 96.20108633 254.49092166 104.48284646 261.6484375 113.52734375 C263.90840563 116.37066105 266.2613946 119.11746036 268.625 121.875 C292.07580259 150.06662842 309.58275787 183.20358876 322.8125 217.25 C323.13798828 218.07902832 323.46347656 218.90805664 323.79882812 219.76220703 C328.84790419 232.70375847 332.95938277 245.90876245 336.8125 259.25 C337.03647461 260.01650879 337.26044922 260.78301758 337.49121094 261.57275391 C344.70820908 286.53951425 349.57422874 312.37386615 351.8125 338.25 C351.88162598 338.98702148 351.95075195 339.72404297 352.02197266 340.48339844 C352.44442443 345.06906228 352.68397913 349.64815576 352.8125 354.25 C352.83973145 355.15024902 352.86696289 356.05049805 352.89501953 356.97802734 C353.48673166 379.8612843 352.48927269 403.22796667 345.8125 425.25 C345.37353975 426.83908328 344.93752092 428.428981 344.50390625 430.01953125 C332.70600533 472.36301791 306.28957128 508.78671916 268.14794922 530.95166016 C247.39687371 542.48774834 227.61093341 545.94732935 204.515625 539.984375 C184.67255436 534.30912135 167.17497303 522.81456886 152.359375 508.6796875 C150.2944311 506.70975635 148.20593317 504.86824175 146 503.0625 C142.17457916 499.81640972 139.03502383 496.08165943 135.8125 492.25 C135.09578125 491.44433594 134.3790625 490.63867188 133.640625 489.80859375 C123.54703058 478.2141544 115.32002873 465.12858146 107.375 452 C104.19195936 446.76012165 100.75883957 441.93997529 96.8125 437.25 C96.15894531 436.46238281 95.50539063 435.67476562 94.83203125 434.86328125 C69.31527064 405.25640236 26.46247562 385.52627451 -12.1875 382.25 C-20.76100154 381.75928446 -29.35233827 381.64385517 -37.93696594 381.48852539 C-67.96049932 380.94416324 -98.41624777 377.04966035 -127.1875 368.25 C-128.02603516 367.99524902 -128.86457031 367.74049805 -129.72851562 367.47802734 C-170.41322256 354.83342338 -205.84923425 331.19673186 -226.3125 293.125 C-231.18766991 283.81071184 -234.85812005 274.20572585 -238.1875 264.25 C-238.78691406 262.52523437 -238.78691406 262.52523437 -239.3984375 260.765625 C-247.94978768 234.91868685 -248.69872331 205.7549457 -243.1875 179.25 C-243.04828125 178.54504395 -242.9090625 177.84008789 -242.765625 177.11376953 C-236.37750886 145.16579516 -221.49955685 115.59576029 -201.1875 90.25 C-200.41792969 89.27675781 -199.64835937 88.30351562 -198.85546875 87.30078125 C-187.21018922 72.89283525 -173.8397816 59.34645673 -158.83496094 48.44873047 C-157.16891552 47.2364775 -155.52563285 45.99739637 -153.8828125 44.75390625 C-109.21362419 11.40134515 -54.85602715 -0.29066016 0 0 Z " transform="translate(342.1875,153.75)" style="fill: #FDDDC2;"></path><path d="M0 0 C1.47291504 0.00081573 1.47291504 0.00081573 2.97558594 0.00164795 C21.11652712 0.04752885 38.67360621 1.36409008 56.5625 4.375 C57.79806641 4.57867187 59.03363281 4.78234375 60.30664062 4.9921875 C97.76168513 11.38262163 134.74635101 25.01506078 163.5625 50.375 C164.53574219 51.20386719 165.50898437 52.03273437 166.51171875 52.88671875 C181.32922491 65.74504245 199.08984613 86.40214535 200.7512207 106.67822266 C200.8304197 109.22616744 200.83544677 111.76349599 200.8125 114.3125 C200.82023437 115.16779297 200.82796875 116.02308594 200.8359375 116.90429688 C200.79089607 131.66662707 194.67185731 144.0228085 185.5625 155.375 C184.77359375 156.37144531 183.9846875 157.36789062 183.171875 158.39453125 C163.57595536 180.77729575 130.15647525 188.86655148 102.5859375 195.62695312 C64.76475871 204.98451868 34.35582523 218.76599599 5.5625 245.375 C4.95921875 245.9009375 4.3559375 246.426875 3.734375 246.96875 C-4.12168666 254.16402142 -9.55803533 264.0593133 -14.83544922 273.22216797 C-25.92136136 292.36341724 -43.15410292 305.34466062 -64.47241211 311.17749023 C-67.77745096 312.00882391 -71.09628319 312.70134028 -74.4375 313.375 C-75.47261719 313.60058594 -76.50773438 313.82617188 -77.57421875 314.05859375 C-108.26714178 319.64262617 -141.22008696 314.34485254 -167.12109375 296.72265625 C-189.03998561 281.38639434 -202.857299 260.86385234 -210.6875 235.5625 C-210.92170654 234.81790527 -211.15591309 234.07331055 -211.3972168 233.30615234 C-216.07906593 217.31501041 -217.01334981 201.37360869 -216.9375 184.8125 C-216.93606995 183.80264038 -216.93463989 182.79278076 -216.9331665 181.75231934 C-216.87834803 166.09653566 -215.91364353 151.4697969 -211.4375 136.375 C-211.20756348 135.55306152 -210.97762695 134.73112305 -210.74072266 133.88427734 C-207.58252614 122.73783289 -202.97925966 112.52569324 -197.4375 102.375 C-196.86 101.30507813 -196.2825 100.23515625 -195.6875 99.1328125 C-189.32693014 87.79568567 -181.37625026 77.77845593 -172.4375 68.375 C-171.9415332 67.84648437 -171.44556641 67.31796875 -170.93457031 66.7734375 C-138.37000581 32.25854517 -93.02641164 13.62852662 -47.25 4.1875 C-46.12984497 3.9548645 -46.12984497 3.9548645 -44.98706055 3.7175293 C-29.97516903 0.76787506 -15.25896159 -0.03195628 0 0 Z " transform="translate(349.4375,180.625)" style="fill: #FE6666;"></path><path d="M0 0 C2.46585775 0.00317545 4.93052808 -0.02046652 7.39624023 -0.0456543 C17.15743136 -0.08526224 25.93756338 0.72899235 35.40209961 3.31567383 C36.23604248 3.54005127 37.06998535 3.76442871 37.92919922 3.99560547 C64.92165319 11.72405139 85.50435309 27.6735876 99.40209961 52.31567383 C111.56775703 75.76450574 116.84459292 101.39977857 116.77709961 127.69067383 C116.77722046 128.42257935 116.77734131 129.15448486 116.77746582 129.90856934 C116.73418815 148.47469008 114.36042735 166.66482833 108.40209961 184.31567383 C108.13413574 185.14212402 107.86617187 185.96857422 107.59008789 186.82006836 C97.78562961 217.01822408 84.09388652 248.42445188 54.46459961 263.62817383 C53.83271729 263.95406494 53.20083496 264.27995605 52.54980469 264.61572266 C42.47615266 269.5254303 32.7879872 270.84865677 21.65209961 270.75317383 C20.4172583 270.74560059 19.18241699 270.73802734 17.91015625 270.73022461 C-3.91354054 270.33643515 -19.75206466 261.61243741 -34.94750977 246.33251953 C-48.26078834 232.48830472 -57.78229688 215.70949476 -67.58227539 199.32739258 C-72.44514666 191.2248189 -77.23230309 183.35386255 -83.59790039 176.31567383 C-84.40485352 175.4159082 -85.21180664 174.51614258 -86.04321289 173.58911133 C-105.25502105 153.25708112 -132.73888088 144.77737083 -159.16040039 138.06567383 C-167.07932828 136.02121556 -173.06529829 133.61669289 -178.59790039 127.31567383 C-179.27852539 126.57317383 -179.95915039 125.83067383 -180.66040039 125.06567383 C-185.72620131 117.87550479 -187.29980209 111.29084926 -187.16040039 102.56567383 C-187.15016846 101.59774902 -187.13993652 100.62982422 -187.12939453 99.63256836 C-186.8955369 91.71320809 -185.35087118 85.34292015 -181.59790039 78.31567383 C-181.11321289 77.32825195 -180.62852539 76.34083008 -180.12915039 75.32348633 C-168.59415939 53.55401801 -146.96102344 39.7534702 -124.84008789 30.47973633 C-124.02187561 30.13668457 -123.20366333 29.79363281 -122.36065674 29.44018555 C-113.16466138 25.64432566 -103.79248678 22.43017301 -94.34790039 19.31567383 C-93.4475708 19.01640991 -92.54724121 18.717146 -91.61962891 18.40881348 C-61.830659 8.53210918 -31.59664777 -0.08482743 0 0 Z " transform="translate(548.597900390625,383.684326171875)" style="fill: #FEA3A3;"></path><path d="M0 0 C1.47291504 0.00081573 1.47291504 0.00081573 2.97558594 0.00164795 C21.11652712 0.04752885 38.67360621 1.36409008 56.5625 4.375 C57.79806641 4.57867187 59.03363281 4.78234375 60.30664062 4.9921875 C97.76168513 11.38262163 134.74635101 25.01506078 163.5625 50.375 C164.53574219 51.20386719 165.50898437 52.03273437 166.51171875 52.88671875 C181.32922491 65.74504245 199.08984613 86.40214535 200.7512207 106.67822266 C200.8304197 109.22616744 200.83544677 111.76349599 200.8125 114.3125 C200.82023437 115.16779297 200.82796875 116.02308594 200.8359375 116.90429688 C200.79089607 131.66662707 194.67185731 144.0228085 185.5625 155.375 C184.77359375 156.37144531 183.9846875 157.36789062 183.171875 158.39453125 C163.57595536 180.77729575 130.15647525 188.86655148 102.5859375 195.62695312 C64.76475871 204.98451868 34.35582523 218.76599599 5.5625 245.375 C4.95921875 245.9009375 4.3559375 246.426875 3.734375 246.96875 C-4.12168666 254.16402142 -9.55803533 264.0593133 -14.83544922 273.22216797 C-25.92136136 292.36341724 -43.15410292 305.34466062 -64.47241211 311.17749023 C-67.77745096 312.00882391 -71.09628319 312.70134028 -74.4375 313.375 C-75.47261719 313.60058594 -76.50773438 313.82617188 -77.57421875 314.05859375 C-108.26714178 319.64262617 -141.22008696 314.34485254 -167.12109375 296.72265625 C-189.03998561 281.38639434 -202.857299 260.86385234 -210.6875 235.5625 C-210.92170654 234.81790527 -211.15591309 234.07331055 -211.3972168 233.30615234 C-216.07906593 217.31501041 -217.01334981 201.37360869 -216.9375 184.8125 C-216.93606995 183.80264038 -216.93463989 182.79278076 -216.9331665 181.75231934 C-216.87834803 166.09653566 -215.91364353 151.4697969 -211.4375 136.375 C-211.20756348 135.55306152 -210.97762695 134.73112305 -210.74072266 133.88427734 C-207.58252614 122.73783289 -202.97925966 112.52569324 -197.4375 102.375 C-196.86 101.30507813 -196.2825 100.23515625 -195.6875 99.1328125 C-189.32693014 87.79568567 -181.37625026 77.77845593 -172.4375 68.375 C-171.9415332 67.84648437 -171.44556641 67.31796875 -170.93457031 66.7734375 C-138.37000581 32.25854517 -93.02641164 13.62852662 -47.25 4.1875 C-46.12984497 3.9548645 -46.12984497 3.9548645 -44.98706055 3.7175293 C-29.97516903 0.76787506 -15.25896159 -0.03195628 0 0 Z M-40.4375 35.375 C-41.46713867 35.57585205 -41.46713867 35.57585205 -42.51757812 35.78076172 C-62.5003804 39.68735221 -82.18268506 46.39868741 -100.4375 55.375 C-101.49541748 55.88667725 -101.49541748 55.88667725 -102.57470703 56.40869141 C-118.98181629 64.41643489 -133.37906391 74.63506236 -146.4375 87.375 C-147.489375 88.3340625 -147.489375 88.3340625 -148.5625 89.3125 C-169.29933351 108.71147328 -182.87513458 139.1464212 -184.4375 167.375 C-184.57592261 172.37401563 -184.62333163 177.36814784 -184.62280273 182.36889648 C-184.62498583 184.67255237 -184.64319341 186.97572541 -184.66210938 189.27929688 C-184.76056498 214.77518784 -178.6862117 242.38522409 -160.3125 261.125 C-150.85589107 270.38391454 -140.03819761 276.31819004 -127.4375 280.375 C-126.50421875 280.6946875 -125.5709375 281.014375 -124.609375 281.34375 C-108.97271335 285.85914962 -89.9545926 284.86536052 -74.4375 280.375 C-73.23996094 280.0346875 -72.04242188 279.694375 -70.80859375 279.34375 C-54.5606153 274.15561449 -46.7063801 265.10758345 -38.6875 250.625 C-28.40410612 232.22037454 -12.98846398 217.06977391 3.87695312 204.62939453 C5.49582871 203.42461719 7.08468462 202.17981735 8.671875 200.93359375 C32.783691 182.35074437 61.48489938 173.39455744 90.56738281 166.13476562 C97.29873655 164.42723605 103.93778848 162.45383729 110.5625 160.375 C111.4812793 160.09043945 112.40005859 159.80587891 113.34667969 159.51269531 C144.2816834 149.95841131 144.2816834 149.95841131 166.5625 127.375 C169.78672882 120.75919485 169.83447079 112.66635777 167.7578125 105.66015625 C166.53822484 103.06537836 165.15657248 100.75858951 163.5625 98.375 C162.9540625 97.45460938 162.345625 96.53421875 161.71875 95.5859375 C152.19481855 82.11739265 140.3104498 71.36726436 126.5625 62.375 C125.78261719 61.83746094 125.00273437 61.29992187 124.19921875 60.74609375 C103.5364049 47.27672842 77.60422892 40.48961515 53.5625 36.375 C51.75845703 36.05402344 51.75845703 36.05402344 49.91796875 35.7265625 C43.17950614 34.60212739 36.47600789 34.00431409 29.65625 33.62109375 C26.5625 33.375 26.5625 33.375 24.4140625 32.87231445 C20.54691031 32.19788046 16.76261448 32.19326597 12.84375 32.171875 C11.99711792 32.16490601 11.15048584 32.15793701 10.27819824 32.15075684 C7.53958184 32.13334533 4.80116955 32.12703059 2.0625 32.125 C1.13244141 32.12399292 0.20238281 32.12298584 -0.75585938 32.12194824 C-14.21222472 32.13184263 -27.23657829 32.54842799 -40.4375 35.375 Z " transform="translate(349.4375,180.625)" style="fill: #020101;"></path><path d="M0 0 C2.46585775 0.00317545 4.93052808 -0.02046652 7.39624023 -0.0456543 C17.15743136 -0.08526224 25.93756338 0.72899235 35.40209961 3.31567383 C36.23604248 3.54005127 37.06998535 3.76442871 37.92919922 3.99560547 C64.92165319 11.72405139 85.50435309 27.6735876 99.40209961 52.31567383 C111.56775703 75.76450574 116.84459292 101.39977857 116.77709961 127.69067383 C116.77722046 128.42257935 116.77734131 129.15448486 116.77746582 129.90856934 C116.73418815 148.47469008 114.36042735 166.66482833 108.40209961 184.31567383 C108.13413574 185.14212402 107.86617187 185.96857422 107.59008789 186.82006836 C97.78562961 217.01822408 84.09388652 248.42445188 54.46459961 263.62817383 C53.83271729 263.95406494 53.20083496 264.27995605 52.54980469 264.61572266 C42.47615266 269.5254303 32.7879872 270.84865677 21.65209961 270.75317383 C20.4172583 270.74560059 19.18241699 270.73802734 17.91015625 270.73022461 C-3.91354054 270.33643515 -19.75206466 261.61243741 -34.94750977 246.33251953 C-48.26078834 232.48830472 -57.78229688 215.70949476 -67.58227539 199.32739258 C-72.44514666 191.2248189 -77.23230309 183.35386255 -83.59790039 176.31567383 C-84.40485352 175.4159082 -85.21180664 174.51614258 -86.04321289 173.58911133 C-105.25502105 153.25708112 -132.73888088 144.77737083 -159.16040039 138.06567383 C-167.07932828 136.02121556 -173.06529829 133.61669289 -178.59790039 127.31567383 C-179.27852539 126.57317383 -179.95915039 125.83067383 -180.66040039 125.06567383 C-185.72620131 117.87550479 -187.29980209 111.29084926 -187.16040039 102.56567383 C-187.15016846 101.59774902 -187.13993652 100.62982422 -187.12939453 99.63256836 C-186.8955369 91.71320809 -185.35087118 85.34292015 -181.59790039 78.31567383 C-181.11321289 77.32825195 -180.62852539 76.34083008 -180.12915039 75.32348633 C-168.59415939 53.55401801 -146.96102344 39.7534702 -124.84008789 30.47973633 C-124.02187561 30.13668457 -123.20366333 29.79363281 -122.36065674 29.44018555 C-113.16466138 25.64432566 -103.79248678 22.43017301 -94.34790039 19.31567383 C-93.4475708 19.01640991 -92.54724121 18.717146 -91.61962891 18.40881348 C-61.830659 8.53210918 -31.59664777 -0.08482743 0 0 Z M-33.59790039 35.31567383 C-34.41387695 35.47712891 -35.22985352 35.63858398 -36.07055664 35.80493164 C-51.39186483 38.94852308 -66.2370889 43.94798542 -81.09790039 48.75317383 C-82.58481888 49.23095276 -82.58481888 49.23095276 -84.10177612 49.71838379 C-123.9609362 62.43119857 -123.9609362 62.43119857 -152.59790039 91.31567383 C-154.88997138 95.94928496 -155.98898563 100.10120392 -155.59790039 105.31567383 C-149.73272433 107.61574287 -143.86040864 109.4131442 -137.78540039 111.06567383 C-113.05354784 118.00220435 -90.3989763 127.63610511 -70.59790039 144.31567383 C-69.80899414 144.94602539 -69.02008789 145.57637695 -68.20727539 146.22583008 C-54.80286372 157.44661984 -46.08856681 172.49256473 -37.41552734 187.41674805 C-19.97719186 218.72308105 -19.97719186 218.72308105 8.51147461 237.87817383 C22.25869323 239.95883394 34.85775069 239.69156104 46.40209961 231.31567383 C61.23037144 219.44139586 68.05225344 202.70685793 74.40209961 185.31567383 C74.66007324 184.61877441 74.91804687 183.921875 75.18383789 183.20385742 C78.53767806 174.05392836 80.78001414 164.9163922 82.40209961 155.31567383 C82.60834961 154.22899414 82.81459961 153.14231445 83.02709961 152.02270508 C86.35070081 131.96569505 85.57916479 110.95619146 80.40209961 91.31567383 C80.22018066 90.62199707 80.03826172 89.92832031 79.85083008 89.21362305 C74.5255989 69.76391809 63.92868666 51.68080599 46.17895508 41.28100586 C32.48215133 33.83979096 18.98760742 31.93634029 3.52709961 32.00317383 C2.506147 32.00640656 2.506147 32.00640656 1.46456909 32.00970459 C-10.43123715 32.06985905 -21.92963079 32.91902221 -33.59790039 35.31567383 Z " transform="translate(548.597900390625,383.684326171875)" style="fill: #020101;"></path><path d="M0 0 C0.99 0.33 1.98 0.66 3 1 C2.50371094 1.42410156 2.00742188 1.84820312 1.49609375 2.28515625 C-6.92017226 9.55157187 -14.11580485 17.26227201 -21 26 C-21.50901855 26.64324219 -22.01803711 27.28648437 -22.54248047 27.94921875 C-29.66368538 36.98367806 -36.24774374 46.0230576 -42 56 C-42.70978528 57.17257324 -43.42076744 58.34442264 -44.1328125 59.515625 C-56.53504213 80.28575511 -64.80898537 103.46843719 -69.3125 127.1875 C-69.47218262 128.01717285 -69.63186523 128.8468457 -69.79638672 129.70166016 C-72.38487218 144.51466151 -72.23461526 159.79035401 -72.29516602 174.78222656 C-72.3066806 176.75365377 -72.32712413 178.72504993 -72.35668945 180.69628906 C-72.88693259 216.32625828 -63.40812591 251.93026029 -38.0859375 278.078125 C-30.30586467 285.70004553 -21.02484404 291.90334063 -11.26953125 296.68359375 C-9 298 -9 298 -7.15625 299.86328125 C-4.29672915 302.69690064 -1.10695351 304.65089703 2.3125 306.75 C3.01745605 307.18538086 3.72241211 307.62076172 4.44873047 308.06933594 C27.11827205 321.92097728 50.84740069 330.68254578 76.70556641 336.47705078 C78.63631182 336.91710789 80.55946164 337.39030297 82.48046875 337.87109375 C103.13176939 343.02723996 124.89142257 344.77825003 146.1171875 345.23828125 C146.91916565 345.25622742 147.7211438 345.27417358 148.54742432 345.29266357 C152.52516211 345.37803041 156.50199621 345.44509805 160.48046875 345.48291016 C174.58771144 345.68079344 188.49821148 347.44658214 202 351.6875 C202.82266357 351.94096191 203.64532715 352.19442383 204.49291992 352.45556641 C213.31326113 355.27098216 221.69050583 358.93732219 230 363 C230.66370605 363.32226562 231.32741211 363.64453125 232.01123047 363.9765625 C246.59432639 371.14965242 263.81514102 381.22271152 273 395 C273.99 395.33 274.98 395.66 276 396 C277.43530273 397.97094727 277.43530273 397.97094727 278.93359375 400.56640625 C279.4944165 401.51974854 280.05523926 402.47309082 280.63305664 403.45532227 C281.22852295 404.48069092 281.82398926 405.50605957 282.4375 406.5625 C289.06459774 417.72597817 296.18418564 428.31878474 304.71484375 438.12109375 C306.84514538 440.80490965 307.77276019 442.86372048 309 446 C310.91355989 448.45308933 310.91355989 448.45308933 313.1875 450.8125 C315.967924 453.80476583 318.69403867 456.8030857 321.3125 459.9375 C337.46557767 478.3453551 358.35272345 491.50002419 380.96972656 500.43823242 C381.74155273 500.74607666 382.51337891 501.0539209 383.30859375 501.37109375 C383.99751709 501.63849365 384.68644043 501.90589355 385.39624023 502.18139648 C387 503 387 503 388 505 C366.93982434 512.74881627 347.28257078 510.72501783 326.78540039 501.63061523 C312.46960138 494.87406257 299.98383319 486.34116383 288.546875 475.4296875 C286.4819311 473.45975635 284.39343317 471.61824175 282.1875 469.8125 C278.36207916 466.56640972 275.22252383 462.83165943 272 459 C271.28328125 458.19433594 270.5665625 457.38867188 269.828125 456.55859375 C259.73453058 444.9641544 251.50752873 431.87858146 243.5625 418.75 C240.37945936 413.51012165 236.94633957 408.68997529 233 404 C232.34644531 403.21238281 231.69289063 402.42476562 231.01953125 401.61328125 C205.50277064 372.00640236 162.64997562 352.27627451 124 349 C115.42649846 348.50928446 106.83516173 348.39385517 98.25053406 348.23852539 C68.22700068 347.69416324 37.77125223 343.79966035 9 335 C8.16146484 334.74524902 7.32292969 334.49049805 6.45898438 334.22802734 C-34.22572256 321.58342338 -69.66173425 297.94673186 -90.125 259.875 C-95.00016991 250.56071184 -98.67062005 240.95572585 -102 231 C-102.59941406 229.27523437 -102.59941406 229.27523437 -103.2109375 227.515625 C-111.76228768 201.66868685 -112.51122331 172.5049457 -107 146 C-106.86078125 145.29504395 -106.7215625 144.59008789 -106.578125 143.86376953 C-100.19000886 111.91579516 -85.31205685 82.34576029 -65 57 C-63.84564453 55.54013672 -63.84564453 55.54013672 -62.66796875 54.05078125 C-50.55314444 39.06189807 -36.62070344 25.29607446 -21 14 C-19.75778876 13.08596977 -18.51560182 12.17190649 -17.2734375 11.2578125 C-5.91343291 2.98138513 -5.91343291 2.98138513 0 0 Z " transform="translate(206,187)" style="fill: #FCFCFC;"></path><path d="M0 0 C2.7816669 0.01851482 5.56300378 0.02050717 8.34472656 0.02026367 C10.1285836 0.02517157 11.91243841 0.03099668 13.69628906 0.0378418 C14.52025177 0.03895462 15.34421448 0.04006744 16.19314575 0.04121399 C20.14905146 0.07390337 23.75604417 0.2994407 27.62597656 1.20581055 C28.97509031 1.36043352 30.32702182 1.49231924 31.68066406 1.6003418 C51.65327273 3.31904671 70.67316816 6.57122184 89.62597656 13.20581055 C89.29597656 13.86581055 88.96597656 14.52581055 88.62597656 15.20581055 C86.06347656 15.91674805 86.06347656 15.91674805 82.62597656 16.58081055 C81.34078125 16.8437793 80.05558594 17.10674805 78.73144531 17.37768555 C77.36299161 17.65390506 75.9945023 17.92994818 74.62597656 18.20581055 C52.42758692 22.72386285 30.93199699 30.18318282 10.62597656 40.20581055 C9.82224609 40.59881348 9.01851562 40.99181641 8.19042969 41.39672852 C-7.64029905 49.20819192 -22.05010327 58.59304318 -35.37402344 70.20581055 C-35.88529785 70.64473633 -36.39657227 71.08366211 -36.92333984 71.53588867 C-51.92300762 84.48666758 -63.7670101 100.32970593 -72.37402344 118.20581055 C-76.22637393 117.43874961 -78.78213601 115.74983429 -81.98339844 113.55737305 C-88.94034444 109.62419769 -94.87532612 108.67899781 -102.74902344 108.76831055 C-104.14556152 108.77967041 -104.14556152 108.77967041 -105.5703125 108.79125977 C-112.2146807 108.95112602 -117.61786676 109.68876605 -123.37402344 113.20581055 C-124.14617187 113.64151367 -124.91832031 114.0772168 -125.71386719 114.52612305 C-136.14150657 120.87639927 -143.02055947 130.56509013 -145.9362793 142.5090332 C-150.93474159 173.30268321 -144.1377008 209.82915924 -127.37402344 236.20581055 C-125.06885239 239.24699245 -122.68863603 242.17380987 -120.19433594 245.0612793 C-118.37402344 247.20581055 -118.37402344 247.20581055 -117.37402344 249.20581055 C-134.04032795 248.35837133 -147.76062583 239.60909734 -159.37402344 228.20581055 C-160.07527344 227.52905273 -160.77652344 226.85229492 -161.49902344 226.1550293 C-179.41309805 207.57617457 -183.56193705 180.08567109 -183.55932617 155.3972168 C-183.56149892 153.10665909 -183.57966869 150.81659512 -183.59863281 148.52612305 C-183.65023336 135.51032482 -182.66479114 122.83165437 -178.74902344 110.33081055 C-178.4910498 109.49420898 -178.23307617 108.65760742 -177.96728516 107.7956543 C-166.18856442 71.04882525 -138.66026275 43.45203843 -104.94238281 25.94311523 C-72.29369426 9.4213488 -36.67929741 -0.25298333 0 0 Z " transform="translate(348.3740234375,212.794189453125)" style="fill: #FEA3A3;"></path><path d="M0 0 C-4.00108837 2.12543942 -8.12512597 3.11448454 -12.5 4.1875 C-50.39952839 13.93537334 -84.91324243 31.869253 -114 58 C-115.08861328 58.96099609 -115.08861328 58.96099609 -116.19921875 59.94140625 C-136.62370423 79.08133289 -149.59727851 105.8131094 -155 133 C-155.17805176 133.87414551 -155.35610352 134.74829102 -155.53955078 135.64892578 C-157.00876839 143.51126064 -157.31158762 151.13878511 -157.25 159.125 C-157.24323242 160.39746582 -157.23646484 161.66993164 -157.22949219 162.98095703 C-156.91001649 192.25013144 -150.39834168 222.19141124 -130.8203125 244.85546875 C-129 247 -129 247 -128 249 C-144.66630451 248.15256079 -158.38660239 239.4032868 -170 228 C-170.70125 227.32324219 -171.4025 226.64648438 -172.125 225.94921875 C-190.03907462 207.37036402 -194.18791361 179.87986055 -194.18530273 155.19140625 C-194.18747548 152.90084854 -194.20564525 150.61078457 -194.22460938 148.3203125 C-194.27620992 135.30451427 -193.2907677 122.62584382 -189.375 110.125 C-189.11702637 109.28839844 -188.85905273 108.45179688 -188.59326172 107.58984375 C-176.81454099 70.8430147 -149.28623931 43.24622788 -115.56835938 25.73730469 C-93.01775111 14.32564011 -68.94892803 6.22341719 -44 2 C-42.93265625 1.79503906 -41.8653125 1.59007812 -40.765625 1.37890625 C-27.33048485 -0.8654432 -13.57633767 -0.17775445 0 0 Z " transform="translate(359,213)" style="fill: #FDFDFD;"></path><path d="M0 0 C2.02304606 -0.00968196 4.04506293 -0.04078988 6.06787109 -0.07226562 C23.65770698 -0.14117781 39.83813536 4.32874834 53.79052734 15.24023438 C54.80115234 15.96210938 55.81177734 16.68398438 56.85302734 17.42773438 C69.85800681 28.82082906 77.03409255 46.799027 80.79052734 63.24023438 C81.08830078 64.449375 81.38607422 65.65851563 81.69287109 66.90429688 C86.85395426 89.88195957 84.7893419 115.60122988 78.79052734 138.24023438 C73.19620808 134.17840151 67.89684911 129.90117716 62.79052734 125.24023438 C62.22720703 124.74265625 61.66388672 124.24507812 61.08349609 123.73242188 C48.44204565 111.94952427 39.66644784 95.05633117 30.86474609 80.37695312 C25.96194684 72.2086998 21.04353327 64.46944797 14.79052734 57.24023438 C14.02224609 56.27214844 13.25396484 55.3040625 12.46240234 54.30664062 C9.76530065 51.07358295 6.73884608 48.49703865 3.41552734 45.92773438 C2.5014209 45.22052246 2.5014209 45.22052246 1.56884766 44.49902344 C-19.74858996 28.32304241 -45.42116046 20.37367079 -71.20947266 14.24023438 C-67.35273914 11.6690787 -63.51645677 10.68687618 -59.08447266 9.42773438 C-58.16956055 9.16710205 -57.25464844 8.90646973 -56.31201172 8.63793945 C-37.75843919 3.50719421 -19.25852129 0.05548674 0 0 Z " transform="translate(549.20947265625,415.759765625)" style="fill: #FD6666;"></path><path d="M0 0 C2.22343829 1.11171914 4.41993793 2.23336912 6.59375 3.44140625 C10.63254857 5.2894345 14.55611255 6.17259471 18.875 7.125 C53.24481489 15.2396483 85.74528828 31.49470492 104.92822266 62.07373047 C108.27972871 67.50630743 111.56467533 72.97901834 114.8478241 78.45306396 C122.13762996 90.60502018 129.61561362 102.3241843 139 113 C139.60972656 113.71671875 140.21945312 114.4334375 140.84765625 115.171875 C150.23457022 125.45562789 163.39068965 131.34448886 177.17919922 132.12304688 C186.01649212 132.44136799 193.73478956 132.48008861 202 129 C202.99 129 203.98 129 205 129 C199.80422937 142.91367423 189.62408281 154.50536062 176.125 160.78125 C165.47585292 164.47975617 152.25758013 163.30997299 142 159 C123.58071103 149.49598332 112.98764629 128.68136939 102.63183594 111.67529297 C92.69995573 95.21281559 92.69995573 95.21281559 81 80 C80.37609375 79.22140625 79.7521875 78.4428125 79.109375 77.640625 C56.73814781 50.82930692 20.06525587 38.0869352 -12.9453125 30.54296875 C-15 30 -15 30 -16 29 C-15.65052585 17.99156423 -10.85192935 9.5914388 -3 2 C-2.01 1.34 -1.02 0.68 0 0 Z " transform="translate(409,460)" style="fill: #FDFDFD;"></path><path d="M0 0 C1.38989136 0.00966797 1.38989136 0.00966797 2.80786133 0.01953125 C14.97387891 0.34319182 24.1096803 4.96450221 32.75 13.5 C41.52517117 23.63944922 44.67611105 34.14902604 44.1328125 47.33984375 C43.26629841 59.28302379 37.43761313 69.66317117 28.87109375 77.8671875 C17.4441069 86.66365252 4.73135847 88.95873899 -9.25 87.5 C-21.4383161 84.74449215 -31.09403729 77.58480317 -37.77734375 67.09375 C-43.88843685 56.33044544 -45.18030526 44.71460617 -43.25 32.5 C-39.65585237 19.97771495 -31.97348515 11.39743024 -20.97265625 4.859375 C-13.87545857 1.31586741 -7.96713583 -0.05787441 0 0 Z " transform="translate(245.25,320.5)" style="fill: #030202;"></path><path d="M0 0 C0.33 0 0.66 0 1 0 C1.02578125 1.02738281 1.0515625 2.05476563 1.078125 3.11328125 C1.54846978 16.15351127 4.03431167 26.96974014 13 37 C24.48517654 47.34201745 35.73552324 49.96356964 50.74707031 49.22949219 C54.57539948 48.83952368 58.27734839 47.9534289 62 47 C62.13986328 47.86463867 62.27972656 48.72927734 62.42382812 49.62011719 C65.28951482 66.96627541 68.57559532 82.92855598 76 99 C76.33 99.99 76.66 100.98 77 102 C75.31409158 102.48473678 73.62617455 102.96248926 71.9375 103.4375 C70.99777344 103.70433594 70.05804688 103.97117187 69.08984375 104.24609375 C61.52496657 106.09188553 54.17974982 106.15205504 46.4375 106.125 C45.32697266 106.12886719 44.21644531 106.13273437 43.07226562 106.13671875 C41.45674805 106.13478516 41.45674805 106.13478516 39.80859375 106.1328125 C38.83720459 106.13168457 37.86581543 106.13055664 36.86499023 106.12939453 C33.84334563 105.99292486 30.97114105 105.55401149 28 105 C28 104.01 28 103.02 28 102 C26.74857685 100.40835542 25.42156428 98.87577868 24.0625 97.375 C1.06264163 69.85472922 -0.45618053 34.15739431 0 0 Z " transform="translate(201,358)" style="fill: #FDA3A3;"></path><path d="M0 0 C5.91953622 4.13052083 9.47633721 9.99863554 11.63671875 16.83984375 C12.5951157 24.06775411 11.30836504 31.03477176 7.08984375 37.04296875 C1.76307736 43.4068047 -4.17539693 48.14172347 -12.6484375 49.09765625 C-20.74054994 49.47287012 -26.82892338 47.03229052 -33.17578125 42.08984375 C-37.88055206 37.79987872 -40.96115535 31.61408257 -41.63671875 25.2734375 C-41.93009507 16.61883612 -40.38168864 10.29540006 -34.49609375 3.76953125 C-24.06197262 -5.9337954 -12.35267658 -6.8625981 0 0 Z " transform="translate(260.36328125,342.16015625)" style="fill: #FBFBFB;"></path><path d="M0 0 C0.66 0.33 1.32 0.66 2 1 C0.68 1.99 -0.64 2.98 -2 4 C-2.66 3.34 -3.32 2.68 -4 2 C-2.125 0.9375 -2.125 0.9375 0 0 Z M-4 4 C-3.34 4.33 -2.68 4.66 -2 5 C-6.95 9.95 -11.9 14.9 -17 20 C-17 17 -17 17 -15.80664062 15.46606445 C-15.26201172 14.937146 -14.71738281 14.40822754 -14.15625 13.86328125 C-13.56972656 13.28642578 -12.98320312 12.70957031 -12.37890625 12.11523438 C-11.75886719 11.52033203 -11.13882813 10.92542969 -10.5 10.3125 C-9.87996094 9.70599609 -9.25992188 9.09949219 -8.62109375 8.47460938 C-7.08735293 6.97626257 -5.54451802 5.48723507 -4 4 Z " transform="translate(211,184)" style="fill: #FAE1CC;"></path></svg>